<svg width="70" height="70" viewBox="0 0 70 70" fill="none" xmlns="http://www.w3.org/2000/svg">
<circle cx="35" cy="35" r="35" fill="#212529"/>
<path d="M47.2727 18H22.7273C22.004 18 21.3103 18.2837 20.7988 18.7886C20.2873 19.2935 20 19.9783 20 20.6923V50.3077C20 51.0217 20.2873 51.7065 20.7988 52.2114C21.3103 52.7163 22.004 53 22.7273 53H47.2727C47.996 53 48.6897 52.7163 49.2012 52.2114C49.7127 51.7065 50 51.0217 50 50.3077V20.6923C50 19.9783 49.7127 19.2935 49.2012 18.7886C48.6897 18.2837 47.996 18 47.2727 18ZM28.1818 47.6154C27.7773 47.6154 27.3818 47.497 27.0454 47.2751C26.7091 47.0532 26.4469 46.7378 26.2921 46.3689C26.1372 45.9999 26.0967 45.5939 26.1757 45.2022C26.2546 44.8105 26.4494 44.4507 26.7355 44.1683C27.0215 43.8859 27.386 43.6936 27.7828 43.6157C28.1795 43.5378 28.5908 43.5778 28.9646 43.7306C29.3383 43.8835 29.6578 44.1423 29.8826 44.4743C30.1073 44.8064 30.2273 45.1968 30.2273 45.5962C30.2273 46.1317 30.0118 46.6453 29.6282 47.024C29.2446 47.4026 28.7243 47.6154 28.1818 47.6154ZM28.1818 40.8846C27.7773 40.8846 27.3818 40.7662 27.0454 40.5443C26.7091 40.3224 26.4469 40.0071 26.2921 39.6381C26.1372 39.2691 26.0967 38.8631 26.1757 38.4715C26.2546 38.0798 26.4494 37.72 26.7355 37.4376C27.0215 37.1552 27.386 36.9629 27.7828 36.885C28.1795 36.807 28.5908 36.847 28.9646 36.9999C29.3383 37.1527 29.6578 37.4115 29.8826 37.7436C30.1073 38.0756 30.2273 38.466 30.2273 38.8654C30.2273 39.4009 30.0118 39.9145 29.6282 40.2932C29.2446 40.6719 28.7243 40.8846 28.1818 40.8846ZM35 47.6154C34.5954 47.6154 34.2 47.497 33.8636 47.2751C33.5272 47.0532 33.2651 46.7378 33.1102 46.3689C32.9554 45.9999 32.9149 45.5939 32.9938 45.2022C33.0728 44.8105 33.2676 44.4507 33.5536 44.1683C33.8397 43.8859 34.2042 43.6936 34.601 43.6157C34.9977 43.5378 35.409 43.5778 35.7828 43.7306C36.1565 43.8835 36.476 44.1423 36.7007 44.4743C36.9255 44.8064 37.0455 45.1968 37.0455 45.5962C37.0455 46.1317 36.83 46.6453 36.4464 47.024C36.0628 47.4026 35.5425 47.6154 35 47.6154ZM35 40.8846C34.5954 40.8846 34.2 40.7662 33.8636 40.5443C33.5272 40.3224 33.2651 40.0071 33.1102 39.6381C32.9554 39.2691 32.9149 38.8631 32.9938 38.4715C33.0728 38.0798 33.2676 37.72 33.5536 37.4376C33.8397 37.1552 34.2042 36.9629 34.601 36.885C34.9977 36.807 35.409 36.847 35.7828 36.9999C36.1565 37.1527 36.476 37.4115 36.7007 37.7436C36.9255 38.0756 37.0455 38.466 37.0455 38.8654C37.0455 39.4009 36.83 39.9145 36.4464 40.2932C36.0628 40.6719 35.5425 40.8846 35 40.8846ZM41.8182 47.6154C41.4136 47.6154 41.0182 47.497 40.6818 47.2751C40.3454 47.0532 40.0832 46.7378 39.9284 46.3689C39.7736 45.9999 39.7331 45.5939 39.812 45.2022C39.891 44.8105 40.0858 44.4507 40.3718 44.1683C40.6579 43.8859 41.0224 43.6936 41.4191 43.6157C41.8159 43.5378 42.2272 43.5778 42.6009 43.7306C42.9747 43.8835 43.2942 44.1423 43.5189 44.4743C43.7437 44.8064 43.8636 45.1968 43.8636 45.5962C43.8636 46.1317 43.6481 46.6453 43.2645 47.024C42.8809 47.4026 42.3607 47.6154 41.8182 47.6154ZM41.8182 40.8846C41.4136 40.8846 41.0182 40.7662 40.6818 40.5443C40.3454 40.3224 40.0832 40.0071 39.9284 39.6381C39.7736 39.2691 39.7331 38.8631 39.812 38.4715C39.891 38.0798 40.0858 37.72 40.3718 37.4376C40.6579 37.1552 41.0224 36.9629 41.4191 36.885C41.8159 36.807 42.2272 36.847 42.6009 36.9999C42.9747 37.1527 43.2942 37.4115 43.5189 37.7436C43.7437 38.0756 43.8636 38.466 43.8636 38.8654C43.8636 39.4009 43.6481 39.9145 43.2645 40.2932C42.8809 40.6719 42.3607 40.8846 41.8182 40.8846ZM44.5455 31.4615C44.5455 31.8186 44.4018 32.161 44.1461 32.4134C43.8903 32.6659 43.5435 32.8077 43.1818 32.8077H26.8182C26.4565 32.8077 26.1097 32.6659 25.8539 32.4134C25.5982 32.161 25.4545 31.8186 25.4545 31.4615V24.7308C25.4545 24.3737 25.5982 24.0313 25.8539 23.7789C26.1097 23.5264 26.4565 23.3846 26.8182 23.3846H43.1818C43.5435 23.3846 43.8903 23.5264 44.1461 23.7789C44.4018 24.0313 44.5455 24.3737 44.5455 24.7308V31.4615Z" fill="white"/>
</svg>
