<svg width="70" height="70" viewBox="0 0 70 70" fill="none" xmlns="http://www.w3.org/2000/svg">
<circle cx="35" cy="35" r="35" fill="#212529"/>
<path d="M52.2944 33.6661L42.1184 23.2897C39.4006 20.5428 35.7178 19 31.8782 19C28.0386 19 24.3558 20.5428 21.638 23.2897L21.6245 23.3035L19.5473 25.4774C19.3321 25.7116 19.2162 26.0219 19.2244 26.3417C19.2326 26.6615 19.3643 26.9653 19.5911 27.1879C19.818 27.4104 20.122 27.5341 20.4379 27.5322C20.7537 27.5303 21.0563 27.4031 21.2805 27.1778L23.3516 25.0115C24.1849 24.1678 25.1358 23.4523 26.174 22.8879L33.1883 29.9995L18.7071 44.6657C18.4829 44.8927 18.3051 45.1622 18.1838 45.4588C18.0624 45.7554 18 46.0733 18 46.3944C18 46.7154 18.0624 47.0333 18.1838 47.3299C18.3051 47.6265 18.4829 47.896 18.7071 48.123L21.8281 51.2839C22.0522 51.5109 22.3183 51.691 22.6112 51.8139C22.904 51.9368 23.2179 52 23.5349 52C23.8519 52 24.1658 51.9368 24.4587 51.8139C24.7515 51.691 25.0176 51.5109 25.2417 51.2839L39.7229 36.6177L44.55 41.5064C44.7741 41.7334 45.0402 41.9135 45.3331 42.0364C45.6259 42.1593 45.9398 42.2225 46.2568 42.2225C46.5738 42.2225 46.8877 42.1593 47.1806 42.0364C47.4734 41.9135 47.7395 41.7334 47.9636 41.5064L52.2914 37.1233C52.5158 36.8965 52.6938 36.6272 52.8154 36.3307C52.937 36.0342 52.9997 35.7164 53 35.3953C53.0003 35.0743 52.9381 34.7563 52.817 34.4596C52.696 34.1629 52.5184 33.8933 52.2944 33.6661ZM38.8691 34.022L35.4992 37.435L32.3782 34.2772L35.7497 30.8627C35.8619 30.7492 35.9509 30.6144 36.0116 30.466C36.0723 30.3177 36.1036 30.1586 36.1036 29.998C36.1036 29.8374 36.0723 29.6783 36.0116 29.53C35.9509 29.3816 35.8619 29.2468 35.7497 29.1333L28.6086 21.9026C30.6718 21.3141 32.8525 21.2927 34.9265 21.8408C37.0005 22.3888 38.893 23.4864 40.4093 25.0207L47.0797 31.8206L42.7398 36.2113L40.5767 34.0205C40.4646 33.9069 40.3315 33.8167 40.185 33.7552C40.0385 33.6937 39.8815 33.6621 39.7229 33.6621C39.5643 33.6621 39.4073 33.6937 39.2608 33.7552C39.1143 33.8167 38.9812 33.9069 38.8691 34.0205V34.022ZM46.2606 39.7755L44.4504 37.9422L48.7737 33.5515L50.5838 35.3848L46.2606 39.7755Z" fill="white"/>
</svg>
