<svg width="107" height="24" viewBox="0 0 107 24" fill="none" xmlns="http://www.w3.org/2000/svg">
<path d="M8.25478 0H23.0828V4.28025H8.25478V0Z" fill="#0093E2"/>
<path d="M7.83145e-07 17.8854L21.5541 4.70224e-07L28.2038 1.21831e-06L0 24L7.83145e-07 17.8854Z" fill="#0093E2"/>
<path d="M23.0063 24L8.17831 24L8.17831 19.7197L23.0063 19.7197L23.0063 24Z" fill="#F5F5F5"/>
<path d="M31.2611 6.11465L9.70697 24L3.05729 24L31.2611 -3.57628e-07L31.2611 6.11465Z" fill="#F5F5F5"/>
<path d="M30.2675 23.8471L33.4838 7.33758H36.0052L39.2215 23.8471H36.6104L36.1509 21.2222H33.3381L32.8786 23.8471H30.2675ZM33.7975 18.5857H35.6915L34.7389 13.1862L33.7975 18.5857Z" fill="white"/>
<path d="M40.9137 23.8471V7.33758H43.4688L46.2481 16.0298L49.0273 7.33758H51.5936V23.8471H49.0273V15.1203L47.0774 21.2222H45.4188L43.4688 15.1203V23.8471H40.9137Z" fill="white"/>
<path d="M57.5219 7.33758C58.0449 7.33758 58.5343 7.44119 58.99 7.64843C59.4457 7.84798 59.8492 8.1243 60.2003 8.47736C60.544 8.8381 60.8129 9.25256 61.0072 9.72076C61.2089 10.1889 61.3098 10.6917 61.3098 11.229V13.6812C61.3098 14.2108 61.2089 14.7135 61.0072 15.1894C60.8129 15.6576 60.544 16.0682 60.2003 16.4213C59.8492 16.782 59.4457 17.066 58.99 17.2732C58.5343 17.4728 58.0449 17.5726 57.5219 17.5726H55.953V23.8471H53.3979V7.33758H57.5219ZM55.953 14.9361H57.5219C57.8581 14.9361 58.1458 14.8133 58.3848 14.5677C58.6239 14.3221 58.7435 14.0266 58.7435 13.6812V11.229C58.7435 10.8836 58.6239 10.5881 58.3848 10.3425C58.1458 10.0968 57.8581 9.97404 57.5219 9.97404H55.953V14.9361Z" fill="white"/>
<path d="M65.6579 9.97404V14.2799H68.2242V16.9163H65.6579V21.2222H70.0509V23.8471H63.1028V7.33758H70.0509V9.97404H65.6579Z" fill="white"/>
<path d="M75.968 7.33758C76.491 7.33758 76.9803 7.44119 77.4361 7.64843C77.8918 7.84798 78.2953 8.1243 78.6464 8.47736C78.9901 8.8381 79.259 9.25256 79.4533 9.72076C79.655 10.1889 79.7558 10.6917 79.7558 11.229V13.6812C79.7558 14.2108 79.655 14.7135 79.4533 15.1894C79.259 15.6576 78.9901 16.0682 78.6464 16.4213C78.5343 16.5364 78.4185 16.64 78.299 16.7321L80.1481 23.8471H77.4921L75.8672 17.5726H74.3991V23.8471H71.844V7.33758H75.968ZM74.3991 14.9361H75.968C76.3042 14.9361 76.5918 14.8133 76.8309 14.5677C77.07 14.3221 77.1895 14.0266 77.1895 13.6812V11.229C77.1895 10.8836 77.07 10.5881 76.8309 10.3425C76.5918 10.0968 76.3042 9.97404 75.968 9.97404H74.3991V14.9361Z" fill="white"/>
<path d="M84.1713 21.2222H88.5642V23.8471H81.6161V7.33758H84.1713V21.2222Z" fill="white"/>
<path d="M90.2452 23.8471V7.33758H92.8003V23.8471H90.2452Z" fill="white"/>
<path d="M94.5934 23.8471V7.33758H97.1485L99.939 16.0644V7.33758H102.505V23.8471H99.939L97.1485 15.1203V23.8471H94.5934Z" fill="white"/>
<path d="M104.298 23.8471V7.33758H106.853V23.8471H104.298Z" fill="white"/>
</svg>

