<svg width="70" height="70" viewBox="0 0 70 70" fill="none" xmlns="http://www.w3.org/2000/svg">
<circle cx="35" cy="35" r="35" fill="#212529"/>
<path d="M53 30.1144C53.002 32.1291 52.5015 34.1126 51.5439 35.8852C50.5862 37.6578 49.2016 39.1635 47.5154 40.2661C45.8292 41.3687 43.8947 42.0333 41.8869 42.1998C39.8792 42.3663 37.8616 42.0293 36.0168 41.2195L27.2577 51.3521C27.2375 51.3757 27.214 51.4009 27.1921 51.4228C26.1823 52.4327 24.8127 53 23.3846 53C21.9565 53 20.5869 52.4327 19.5771 51.4228C18.5673 50.4129 18 49.0432 18 47.6151C18 46.1869 18.5673 44.8172 19.5771 43.8074C19.6007 43.7855 19.6242 43.7619 19.6495 43.7417L29.7815 34.9838C28.8737 32.9072 28.566 30.6177 28.8934 28.375C29.2207 26.1324 30.1699 24.0263 31.6334 22.2958C33.0968 20.5653 35.0159 19.2796 37.1729 18.5844C39.33 17.8893 41.6387 17.8126 43.8371 18.3631C44.0637 18.4199 44.2717 18.5347 44.4405 18.6963C44.6093 18.8578 44.7331 19.0605 44.7998 19.2844C44.8665 19.5083 44.8738 19.7458 44.821 19.9734C44.7681 20.201 44.6569 20.4109 44.4983 20.5825L38.194 27.4222L39.1463 31.8559L43.578 32.8065L50.4174 26.4934C50.5889 26.3348 50.7988 26.2236 51.0264 26.1708C51.254 26.1179 51.4914 26.1252 51.7153 26.1919C51.9392 26.2586 52.1419 26.3825 52.3034 26.5513C52.465 26.7201 52.5798 26.928 52.6366 27.1547C52.8781 28.1227 53.0002 29.1167 53 30.1144Z" fill="white"/>
</svg>
