<svg width="70" height="70" viewBox="0 0 70 70" fill="none" xmlns="http://www.w3.org/2000/svg">
<circle cx="35" cy="35" r="35" fill="#212529"/>
<rect x="10" y="12" width="50" height="46" rx="6" fill="white"/>
<path d="M58 12H12C10.8909 12 9.82725 12.4406 9.043 13.2248C8.25876 14.0091 7.81818 15.0727 7.81818 16.1818V53.8182C7.81818 54.9273 8.25876 55.9909 9.043 56.7752C9.82725 57.5594 10.8909 58 12 58H58C59.1091 58 60.1727 57.5594 60.957 56.7752C61.7412 55.9909 62.1818 54.9273 62.1818 53.8182V16.1818C62.1818 15.0727 61.7412 14.0091 60.957 13.2248C60.1727 12.4406 59.1091 12 58 12ZM30.8182 24.5455C35.253 24.5503 39.5049 26.3142 42.6408 29.4501C45.7767 32.586 47.5406 36.8379 47.5454 41.2727C47.5454 41.8273 47.3252 42.3591 46.933 42.7512C46.5409 43.1433 46.0091 43.3636 45.4545 43.3636C44.9 43.3636 44.3682 43.1433 43.976 42.7512C43.5839 42.3591 43.3636 41.8273 43.3636 41.2727C43.3602 37.9465 42.0373 34.7576 39.6853 32.4056C37.3334 30.0536 34.1444 28.7307 30.8182 28.7273C30.2636 28.7273 29.7318 28.507 29.3397 28.1149C28.9476 27.7227 28.7273 27.1909 28.7273 26.6364C28.7273 26.0818 28.9476 25.55 29.3397 25.1579C29.7318 24.7657 30.2636 24.5455 30.8182 24.5455ZM53.8182 51.7273H22.4545C21.9 51.7273 21.3682 51.507 20.976 51.1149C20.5839 50.7227 20.3636 50.1909 20.3636 49.6364V28.7273H16.1818C15.6273 28.7273 15.0954 28.507 14.7033 28.1149C14.3112 27.7227 14.0909 27.1909 14.0909 26.6364C14.0909 26.0818 14.3112 25.55 14.7033 25.1579C15.0954 24.7657 15.6273 24.5455 16.1818 24.5455H20.3636V20.3636C20.3636 19.8091 20.5839 19.2773 20.976 18.8851C21.3682 18.493 21.9 18.2727 22.4545 18.2727C23.0091 18.2727 23.5409 18.493 23.933 18.8851C24.3252 19.2773 24.5454 19.8091 24.5454 20.3636V47.5455H53.8182C54.3727 47.5455 54.9046 47.7657 55.2967 48.1579C55.6888 48.55 55.9091 49.0818 55.9091 49.6364C55.9091 50.1909 55.6888 50.7227 55.2967 51.1149C54.9046 51.507 54.3727 51.7273 53.8182 51.7273Z" fill="#212529"/>
</svg>
